<svg width="430" height="932" viewBox="0 0 430 932" fill="none" xmlns="http://www.w3.org/2000/svg">
<g clip-path="url(#clip0_423_26)">
<rect width="430" height="932" fill="#7F90CD"/>
<path fill-rule="evenodd" clip-rule="evenodd" d="M406.003 631.633C462.5 737.5 418.171 876.998 361 936.809C307.205 993.088 176.065 949.227 111.499 936.809C60.4535 926.991 -46.2931 958.831 -46.2931 877.591C-82.5722 821.613 -43.8395 710.563 -46.2931 631.633C-48.9536 546.047 -81.0992 426.042 -46.2931 359.119C-9.48539 288.347 83.0994 297.542 141 314.5C195.629 375.904 203.004 467 249.504 496.5C297.897 559.591 360.952 547.213 406.003 631.633Z" fill="url(#paint0_linear_423_26)"/>
<path fill-rule="evenodd" clip-rule="evenodd" d="M-91.5006 322.798C-47.111 214.77 -42.8206 -26.1008 73.0008 -57.5002C390.5 -91.5 166 10 166 154C277.663 348.5 -15.5034 483.838 107 573C113.796 648.942 295.476 646.564 277.664 719.595C437 1002.73 377.5 915.5 134.998 1002.73C24.1981 1027.29 -61.9998 910.798 -61.9992 821.798C-136.352 766.794 -20.6499 758.764 -61.9999 677.797C-61.9999 580.798 -131.565 420.3 -91.5006 322.798Z" fill="url(#paint1_linear_423_26)"/>
<ellipse cx="415" cy="108" rx="200" ry="215" fill="url(#paint2_linear_423_26)"/>
<path fill-rule="evenodd" clip-rule="evenodd" d="M260.136 190.112C262.538 177.306 273.276 165.403 291.363 157.004C308.191 149.188 330.589 146.437 352.766 147.094C373.64 147.712 371.64 181.805 385.771 190.112C399.34 198.088 437.951 208.917 425.945 190.112C432.218 205.825 456.949 223.657 437.951 236.043C419.124 248.317 382.25 247.474 352.766 246.487C326.349 245.602 296.685 240.527 277.546 230.67C258.2 220.705 257.444 204.464 260.136 190.112Z" fill="url(#paint3_linear_423_26)"/>
<g filter="url(#filter0_d_423_26)">
<ellipse cx="55.5" cy="66.5" rx="82.5" ry="80.5" fill="url(#paint4_linear_423_26)"/>
</g>
<g filter="url(#filter1_d_423_26)">
<ellipse cx="220.5" cy="753.5" rx="82.5" ry="80.5" fill="url(#paint5_linear_423_26)"/>
</g>
<g filter="url(#filter2_d_423_26)">
<ellipse cx="319.5" cy="266.5" rx="60.5" ry="56.5" fill="url(#paint6_linear_423_26)"/>
</g>
<ellipse cx="89" cy="633.5" rx="33" ry="32.5" fill="url(#paint7_linear_423_26)"/>
</g>
<defs>
<filter id="filter0_d_423_26" x="-31" y="-14" width="173" height="169" filterUnits="userSpaceOnUse" color-interpolation-filters="sRGB">
<feFlood flood-opacity="0" result="BackgroundImageFix"/>
<feColorMatrix in="SourceAlpha" type="matrix" values="0 0 0 0 0 0 0 0 0 0 0 0 0 0 0 0 0 0 127 0" result="hardAlpha"/>
<feOffset dy="4"/>
<feGaussianBlur stdDeviation="2"/>
<feComposite in2="hardAlpha" operator="out"/>
<feColorMatrix type="matrix" values="0 0 0 0 0 0 0 0 0 0 0 0 0 0 0 0 0 0 0.25 0"/>
<feBlend mode="normal" in2="BackgroundImageFix" result="effect1_dropShadow_423_26"/>
<feBlend mode="normal" in="SourceGraphic" in2="effect1_dropShadow_423_26" result="shape"/>
</filter>
<filter id="filter1_d_423_26" x="134" y="673" width="173" height="169" filterUnits="userSpaceOnUse" color-interpolation-filters="sRGB">
<feFlood flood-opacity="0" result="BackgroundImageFix"/>
<feColorMatrix in="SourceAlpha" type="matrix" values="0 0 0 0 0 0 0 0 0 0 0 0 0 0 0 0 0 0 127 0" result="hardAlpha"/>
<feOffset dy="4"/>
<feGaussianBlur stdDeviation="2"/>
<feComposite in2="hardAlpha" operator="out"/>
<feColorMatrix type="matrix" values="0 0 0 0 0 0 0 0 0 0 0 0 0 0 0 0 0 0 0.25 0"/>
<feBlend mode="normal" in2="BackgroundImageFix" result="effect1_dropShadow_423_26"/>
<feBlend mode="normal" in="SourceGraphic" in2="effect1_dropShadow_423_26" result="shape"/>
</filter>
<filter id="filter2_d_423_26" x="255" y="210" width="129" height="121" filterUnits="userSpaceOnUse" color-interpolation-filters="sRGB">
<feFlood flood-opacity="0" result="BackgroundImageFix"/>
<feColorMatrix in="SourceAlpha" type="matrix" values="0 0 0 0 0 0 0 0 0 0 0 0 0 0 0 0 0 0 127 0" result="hardAlpha"/>
<feOffset dy="4"/>
<feGaussianBlur stdDeviation="2"/>
<feComposite in2="hardAlpha" operator="out"/>
<feColorMatrix type="matrix" values="0 0 0 0 0 0 0 0 0 0 0 0 0 0 0 0 0 0 0.25 0"/>
<feBlend mode="normal" in2="BackgroundImageFix" result="effect1_dropShadow_423_26"/>
<feBlend mode="normal" in="SourceGraphic" in2="effect1_dropShadow_423_26" result="shape"/>
</filter>
<linearGradient id="paint0_linear_423_26" x1="658.352" y1="511.432" x2="196.522" y2="249.894" gradientUnits="userSpaceOnUse">
<stop stop-color="#3D4875"/>
<stop offset="1" stop-color="#7181C2"/>
</linearGradient>
<linearGradient id="paint1_linear_423_26" x1="141" y1="940.5" x2="134.65" y2="-15.1124" gradientUnits="userSpaceOnUse">
<stop stop-color="#171D35"/>
<stop offset="1" stop-color="#4363E0" stop-opacity="0.36"/>
</linearGradient>
<linearGradient id="paint2_linear_423_26" x1="248.577" y1="162.5" x2="474.124" y2="291.303" gradientUnits="userSpaceOnUse">
<stop stop-color="white"/>
<stop offset="1" stop-color="#233C79"/>
</linearGradient>
<linearGradient id="paint3_linear_423_26" x1="263.416" y1="192.051" x2="442.91" y2="238.391" gradientUnits="userSpaceOnUse">
<stop stop-color="#6EAEE7"/>
<stop offset="1" stop-color="#39407A"/>
</linearGradient>
<linearGradient id="paint4_linear_423_26" x1="157.5" y1="84" x2="-27" y2="67" gradientUnits="userSpaceOnUse">
<stop stop-color="#171D35"/>
<stop offset="1" stop-color="#4367F8"/>
</linearGradient>
<linearGradient id="paint5_linear_423_26" x1="322.5" y1="771" x2="138" y2="754" gradientUnits="userSpaceOnUse">
<stop stop-color="#171D35"/>
<stop offset="1" stop-color="#4367F8"/>
</linearGradient>
<linearGradient id="paint6_linear_423_26" x1="319.5" y1="210" x2="380" y2="323" gradientUnits="userSpaceOnUse">
<stop stop-color="white"/>
<stop offset="1" stop-color="#273D92"/>
</linearGradient>
<linearGradient id="paint7_linear_423_26" x1="89" y1="601" x2="89" y2="666" gradientUnits="userSpaceOnUse">
<stop stop-color="white"/>
<stop offset="1" stop-color="#273D92"/>
</linearGradient>
<clipPath id="clip0_423_26">
<rect width="430" height="932" fill="white"/>
</clipPath>
</defs>
</svg>
